<svg width="20" height="18" viewBox="0 0 20 18" fill="none" xmlns="http://www.w3.org/2000/svg">
<g clip-path="url(#clip0_312_187)">
<path d="M19.8046 17.5343L19.3306 15.7343C19.1057 14.861 18.424 14.1588 17.5256 13.875L14.0499 12.7755C13.2023 12.4403 12.8145 11.1443 12.7307 10.6522C13.3766 10.1423 13.7921 9.41685 13.8919 8.62499C13.8777 8.48974 13.9113 8.35383 13.9875 8.23873C14.1106 8.20944 14.2115 8.1257 14.2584 8.01373C14.4859 7.49088 14.6286 6.93837 14.6818 6.37499C14.6819 6.34437 14.678 6.31389 14.67 6.28425C14.6134 6.06533 14.4779 5.87215 14.2869 5.73824V3.74998C14.2869 2.54173 13.8982 2.04599 13.489 1.75873C13.4109 1.17675 12.7545 0 10.3373 0C8.19274 0.0819844 6.47398 1.71387 6.38763 3.75001V5.73827C6.19664 5.87218 6.06108 6.06537 6.0045 6.28429C5.99651 6.31392 5.99254 6.34444 5.99265 6.37502C6.04583 6.93868 6.18857 7.49145 6.41607 8.01453C6.45028 8.12053 6.54 8.20206 6.65305 8.2298C6.69729 8.25078 6.78024 8.35956 6.78024 8.62506C6.88062 9.41917 7.29859 10.1463 7.94776 10.6561C7.86482 11.1473 7.47932 12.4426 6.65545 12.7696L3.14895 13.875C2.25128 14.1588 1.56997 14.8603 1.34477 15.7328L0.870811 17.5328C0.817157 17.7336 0.945052 17.9376 1.15648 17.9885C1.18807 17.9962 1.22054 18 1.25312 18.0001H19.4215C19.6396 18 19.8164 17.8321 19.8163 17.625C19.8163 17.5943 19.8123 17.5639 19.8046 17.5343Z" fill="#0008C1"/>
</g>
<defs>
<clipPath id="clip0_312_187">
<rect width="18.9583" height="18" fill="white" transform="translate(0.857254)"/>
</clipPath>
</defs>
</svg>
