<svg width="19" height="18" viewBox="0 0 19 18" fill="none" xmlns="http://www.w3.org/2000/svg">
<path d="M4.04079 13.5375L6.90773 12.8196L7.07312 12.1564C6.01321 12.0125 4.98523 11.6902 4.03259 11.2032C3.9264 11.1394 3.85863 11.0272 3.85147 10.9034C3.84397 10.7796 3.89732 10.6598 3.99442 10.5827C4.00789 10.5737 5.34521 9.46762 5.34521 5.63532C5.34521 2.40326 6.10028 0.764386 7.59026 0.764386H7.81476C8.33169 0.208152 9.08125 -0.0698417 9.83531 0.0150247C11.2415 0.0150247 14.3254 1.4306 14.3254 5.63532C14.3254 9.46762 15.6627 10.5737 15.6724 10.5812C15.8379 10.7051 15.8717 10.9399 15.748 11.1057C15.7189 11.1445 15.6826 11.1774 15.641 11.2024C14.6892 11.694 13.6599 12.0175 12.5982 12.1586L12.7636 12.8203L15.6298 13.5382C17.5037 14.0051 18.8183 15.6915 18.8155 17.6253C18.8155 17.8322 18.6479 18 18.4413 18H1.22922C1.02257 18 0.855029 17.8322 0.855029 17.6253C0.851978 15.6913 2.16653 14.0044 4.04079 13.5375Z" fill="#0008C1"/>
</svg>
